# xmcd
#
# Track frame offsets:
#	150
#	23586
#	39065
#	53189
#	70691
#	88454
#	103094
#	114961
#	129981
#	145038
#	157664
#	173475
#	188865
#	203879
#	220815
#
# Disc length: 3258 seconds
#
# Revision: 0
# Processed by: cddbd v1.5.1PL2 Copyright (c) Steve Scherf et al.
# Submitted via: EasyCDDAExtractor 8.2.4.1
#
DISCID=bd0cb80f
DTITLE=Bruno e Marrone - Bruno e Marrone - Ao Vivo Em Goiânia
DYEAR=1900
DGENRE=
TTITLE0=Por Te Amar Demais
TTITLE1=Vê Se Toma Juízo
TTITLE2=Amor de Ping Pong (part. Edson e Hudson)
TTITLE3=Por Um Gole A Mais
TTITLE4=Marianne
TTITLE5=Doce Desejo (part. Cláudia Leite)
TTITLE6=Me Namora
TTITLE7=Que Pescar Que Nada (part. Leonardo)
TTITLE8=Não Posso Ter Medo de Amar
TTITLE9=Desiguais (part. Ana Paula)
TTITLE10=Tá Pegando (part. Grupo Tradição)
TTITLE11=O Sonho Não Acabou
TTITLE12=Porque Choras (part. Banda Calypso)
TTITLE13=Essa História Eu Conheço
TTITLE14=Choram As Rosas
EXTD=
EXTT0=
EXTT1=
EXTT2=
EXTT3=
EXTT4=
EXTT5=
EXTT6=
EXTT7=
EXTT8=
EXTT9=
EXTT10=
EXTT11=
EXTT12=
EXTT13=
EXTT14=
PLAYORDER=
